<svg width="711" height="145" viewBox="0 0 711 145" fill="none" xmlns="http://www.w3.org/2000/svg">
<path d="M0.152344 6.4C5.21901 4.93333 11.7523 3.59999 19.7523 2.4C27.7523 1.06666 36.1523 0.399991 44.9523 0.399991C53.8857 0.399991 61.2857 1.59999 67.1523 3.99999C73.1523 6.26666 77.8857 9.53333 81.3523 13.8C84.819 18.0667 87.2857 23.1333 88.7523 29C90.219 34.8667 90.9524 41.4 90.9524 48.6V108H61.1523V52.2C61.1523 42.6 59.8857 35.8 57.3523 31.8C54.819 27.8 50.0857 25.8 43.1523 25.8C41.019 25.8 38.7523 25.9333 36.3523 26.2C33.9523 26.3333 31.819 26.5333 29.9523 26.8V108H0.152344V6.4ZM216.326 55.2C216.326 63.4667 215.126 71.0667 212.726 78C210.326 84.8 206.859 90.6667 202.326 95.6C197.792 100.4 192.326 104.133 185.926 106.8C179.659 109.467 172.592 110.8 164.726 110.8C156.992 110.8 149.926 109.467 143.526 106.8C137.259 104.133 131.859 100.4 127.326 95.6C122.792 90.6667 119.259 84.8 116.726 78C114.192 71.0667 112.926 63.4667 112.926 55.2C112.926 46.9333 114.192 39.4 116.726 32.6C119.392 25.8 122.992 20 127.526 15.2C132.192 10.4 137.659 6.66666 143.926 3.99999C150.326 1.33333 157.259 -4.29153e-06 164.726 -4.29153e-06C172.326 -4.29153e-06 179.259 1.33333 185.526 3.99999C191.926 6.66666 197.392 10.4 201.926 15.2C206.459 20 209.992 25.8 212.526 32.6C215.059 39.4 216.326 46.9333 216.326 55.2ZM185.926 55.2C185.926 46 184.059 38.8 180.326 33.6C176.726 28.2667 171.526 25.6 164.726 25.6C157.926 25.6 152.659 28.2667 148.926 33.6C145.192 38.8 143.326 46 143.326 55.2C143.326 64.4 145.192 71.7333 148.926 77.2C152.659 82.5333 157.926 85.2 164.726 85.2C171.526 85.2 176.726 82.5333 180.326 77.2C184.059 71.7333 185.926 64.4 185.926 55.2ZM297.21 52.2C297.21 42.6 295.943 35.8 293.41 31.8C291.01 27.8 286.81 25.8 280.81 25.8C278.943 25.8 277.01 25.9333 275.01 26.2C273.01 26.3333 271.077 26.5333 269.21 26.8V108H239.41V6.4C241.943 5.73333 244.877 5.06666 248.21 4.4C251.677 3.59999 255.277 2.93333 259.01 2.4C262.877 1.73333 266.81 1.26666 270.81 0.999995C274.81 0.599992 278.743 0.399991 282.61 0.399991C290.21 0.399991 296.343 1.39999 301.01 3.4C305.81 5.26667 309.743 7.53333 312.81 10.2C317.077 7.13333 321.943 4.73333 327.41 2.99999C333.01 1.26666 338.143 0.399991 342.81 0.399991C351.21 0.399991 358.077 1.59999 363.41 3.99999C368.877 6.26666 373.21 9.53333 376.41 13.8C379.61 18.0667 381.81 23.1333 383.01 29C384.21 34.8667 384.81 41.4 384.81 48.6V108H355.01V52.2C355.01 42.6 353.743 35.8 351.21 31.8C348.81 27.8 344.61 25.8 338.61 25.8C337.01 25.8 334.743 26.2 331.81 27C329.01 27.8 326.677 28.8 324.81 30C325.743 33.0667 326.343 36.3333 326.61 39.8C326.877 43.1333 327.01 46.7333 327.01 50.6V108H297.21V52.2ZM452.071 87.2C455.004 87.2 457.804 87.1333 460.471 87C463.138 86.8667 465.271 86.6667 466.871 86.4V63.8C465.671 63.5333 463.871 63.2667 461.471 63C459.071 62.7333 456.871 62.6 454.871 62.6C452.071 62.6 449.404 62.8 446.871 63.2C444.471 63.4667 442.338 64.0667 440.471 65C438.604 65.9333 437.138 67.2 436.071 68.8C435.004 70.4 434.471 72.4 434.471 74.8C434.471 79.4667 436.004 82.7333 439.071 84.6C442.271 86.3333 446.604 87.2 452.071 87.2ZM449.671 -4.29153e-06C458.471 -4.29153e-06 465.804 0.999995 471.671 2.99999C477.538 4.99999 482.204 7.86666 485.671 11.6C489.271 15.3333 491.804 19.8667 493.271 25.2C494.738 30.5333 495.471 36.4667 495.471 43V105C491.204 105.933 485.271 107 477.671 108.2C470.071 109.533 460.871 110.2 450.071 110.2C443.271 110.2 437.071 109.6 431.471 108.4C426.004 107.2 421.271 105.267 417.271 102.6C413.271 99.8 410.204 96.2 408.071 91.8C405.938 87.4 404.871 82 404.871 75.6C404.871 69.4667 406.071 64.2667 408.471 60C411.004 55.7333 414.338 52.3333 418.471 49.8C422.604 47.2667 427.338 45.4667 432.671 44.4C438.004 43.2 443.538 42.6 449.271 42.6C453.138 42.6 456.538 42.8 459.471 43.2C462.538 43.4667 465.004 43.8667 466.871 44.4V41.6C466.871 36.5333 465.338 32.4667 462.271 29.4C459.204 26.3333 453.871 24.8 446.271 24.8C441.204 24.8 436.204 25.2 431.271 26C426.338 26.6667 422.071 27.6667 418.471 29L414.671 4.99999C416.404 4.46666 418.538 3.93333 421.071 3.4C423.738 2.73333 426.604 2.2 429.671 1.8C432.738 1.26666 435.938 0.866663 439.271 0.6C442.738 0.199997 446.204 -4.29153e-06 449.671 -4.29153e-06ZM613.279 2.8C607.279 23.0667 601.012 42.0667 594.479 59.8C587.946 77.5333 580.812 94.7333 573.079 111.4C570.279 117.4 567.479 122.467 564.679 126.6C561.879 130.867 558.812 134.333 555.479 137C552.146 139.8 548.346 141.8 544.079 143C539.946 144.333 535.079 145 529.479 145C524.812 145 520.479 144.533 516.479 143.6C512.612 142.8 509.412 141.867 506.879 140.8L512.079 117C515.146 118.067 517.879 118.8 520.279 119.2C522.679 119.6 525.212 119.8 527.879 119.8C533.212 119.8 537.279 118.333 540.079 115.4C543.012 112.6 545.479 108.667 547.479 103.6C540.679 90.2667 533.879 75.3333 527.079 58.8C520.279 42.1333 513.879 23.4667 507.879 2.8H539.479C540.812 8 542.346 13.6667 544.079 19.8C545.946 25.8 547.879 31.9333 549.879 38.2C551.879 44.3333 553.879 50.3333 555.879 56.2C558.012 62.0667 560.012 67.4 561.879 72.2C563.612 67.4 565.412 62.0667 567.279 56.2C569.146 50.3333 570.946 44.3333 572.679 38.2C574.546 31.9333 576.279 25.8 577.879 19.8C579.612 13.6667 581.146 8 582.479 2.8H613.279ZM667.501 87.2C670.434 87.2 673.234 87.1333 675.901 87C678.567 86.8667 680.701 86.6667 682.301 86.4V63.8C681.101 63.5333 679.301 63.2667 676.901 63C674.501 62.7333 672.301 62.6 670.301 62.6C667.501 62.6 664.834 62.8 662.301 63.2C659.901 63.4667 657.767 64.0667 655.901 65C654.034 65.9333 652.567 67.2 651.501 68.8C650.434 70.4 649.901 72.4 649.901 74.8C649.901 79.4667 651.434 82.7333 654.501 84.6C657.701 86.3333 662.034 87.2 667.501 87.2ZM665.101 -4.29153e-06C673.901 -4.29153e-06 681.234 0.999995 687.101 2.99999C692.967 4.99999 697.634 7.86666 701.101 11.6C704.701 15.3333 707.234 19.8667 708.701 25.2C710.167 30.5333 710.901 36.4667 710.901 43V105C706.634 105.933 700.701 107 693.101 108.2C685.501 109.533 676.301 110.2 665.501 110.2C658.701 110.2 652.501 109.6 646.901 108.4C641.434 107.2 636.701 105.267 632.701 102.6C628.701 99.8 625.634 96.2 623.501 91.8C621.367 87.4 620.301 82 620.301 75.6C620.301 69.4667 621.501 64.2667 623.901 60C626.434 55.7333 629.767 52.3333 633.901 49.8C638.034 47.2667 642.767 45.4667 648.101 44.4C653.434 43.2 658.967 42.6 664.701 42.6C668.567 42.6 671.967 42.8 674.901 43.2C677.967 43.4667 680.434 43.8667 682.301 44.4V41.6C682.301 36.5333 680.767 32.4667 677.701 29.4C674.634 26.3333 669.301 24.8 661.701 24.8C656.634 24.8 651.634 25.2 646.701 26C641.767 26.6667 637.501 27.6667 633.901 29L630.101 4.99999C631.834 4.46666 633.967 3.93333 636.501 3.4C639.167 2.73333 642.034 2.2 645.101 1.8C648.167 1.26666 651.367 0.866663 654.701 0.6C658.167 0.199997 661.634 -4.29153e-06 665.101 -4.29153e-06Z" fill="black"/>
</svg>
