<svg width="717" height="242" viewBox="0 0 717 242" fill="none" xmlns="http://www.w3.org/2000/svg">
<path d="M5.96046e-08 6.4C5.06667 4.93333 11.6 3.59999 19.6 2.4C27.6 1.06666 36 0.399991 44.8 0.399991C53.7333 0.399991 61.1333 1.59999 67 3.99999C73 6.26666 77.7333 9.53333 81.2 13.8C84.6667 18.0667 87.1333 23.1333 88.6 29C90.0667 34.8667 90.8 41.4 90.8 48.6V108H61V52.2C61 42.6 59.7333 35.8 57.2 31.8C54.6667 27.8 49.9333 25.8 43 25.8C40.8667 25.8 38.6 25.9333 36.2 26.2C33.8 26.3333 31.6667 26.5333 29.8 26.8V108H5.96046e-08V6.4ZM216.173 55.2C216.173 63.4667 214.973 71.0667 212.573 78C210.173 84.8 206.707 90.6667 202.173 95.6C197.64 100.4 192.173 104.133 185.773 106.8C179.507 109.467 172.44 110.8 164.573 110.8C156.84 110.8 149.773 109.467 143.373 106.8C137.107 104.133 131.707 100.4 127.173 95.6C122.64 90.6667 119.107 84.8 116.573 78C114.04 71.0667 112.773 63.4667 112.773 55.2C112.773 46.9333 114.04 39.4 116.573 32.6C119.24 25.8 122.84 20 127.373 15.2C132.04 10.4 137.507 6.66666 143.773 3.99999C150.173 1.33333 157.107 -4.29153e-06 164.573 -4.29153e-06C172.173 -4.29153e-06 179.107 1.33333 185.373 3.99999C191.773 6.66666 197.24 10.4 201.773 15.2C206.307 20 209.84 25.8 212.373 32.6C214.907 39.4 216.173 46.9333 216.173 55.2ZM185.773 55.2C185.773 46 183.907 38.8 180.173 33.6C176.573 28.2667 171.373 25.6 164.573 25.6C157.773 25.6 152.507 28.2667 148.773 33.6C145.04 38.8 143.173 46 143.173 55.2C143.173 64.4 145.04 71.7333 148.773 77.2C152.507 82.5333 157.773 85.2 164.573 85.2C171.373 85.2 176.573 82.5333 180.173 77.2C183.907 71.7333 185.773 64.4 185.773 55.2ZM297.058 52.2C297.058 42.6 295.791 35.8 293.258 31.8C290.858 27.8 286.658 25.8 280.658 25.8C278.791 25.8 276.858 25.9333 274.858 26.2C272.858 26.3333 270.924 26.5333 269.058 26.8V108H239.258V6.4C241.791 5.73333 244.724 5.06666 248.058 4.4C251.524 3.59999 255.124 2.93333 258.858 2.4C262.724 1.73333 266.658 1.26666 270.658 0.999995C274.658 0.599992 278.591 0.399991 282.458 0.399991C290.058 0.399991 296.191 1.39999 300.858 3.4C305.658 5.26667 309.591 7.53333 312.658 10.2C316.924 7.13333 321.791 4.73333 327.258 2.99999C332.858 1.26666 337.991 0.399991 342.658 0.399991C351.058 0.399991 357.924 1.59999 363.258 3.99999C368.724 6.26666 373.058 9.53333 376.258 13.8C379.458 18.0667 381.658 23.1333 382.858 29C384.058 34.8667 384.658 41.4 384.658 48.6V108H354.858V52.2C354.858 42.6 353.591 35.8 351.058 31.8C348.658 27.8 344.458 25.8 338.458 25.8C336.858 25.8 334.591 26.2 331.658 27C328.858 27.8 326.524 28.8 324.658 30C325.591 33.0667 326.191 36.3333 326.458 39.8C326.724 43.1333 326.858 46.7333 326.858 50.6V108H297.058V52.2ZM451.919 87.2C454.852 87.2 457.652 87.1333 460.319 87C462.985 86.8667 465.119 86.6667 466.719 86.4V63.8C465.519 63.5333 463.719 63.2667 461.319 63C458.919 62.7333 456.719 62.6 454.719 62.6C451.919 62.6 449.252 62.8 446.719 63.2C444.319 63.4667 442.185 64.0667 440.319 65C438.452 65.9333 436.985 67.2 435.919 68.8C434.852 70.4 434.319 72.4 434.319 74.8C434.319 79.4667 435.852 82.7333 438.919 84.6C442.119 86.3333 446.452 87.2 451.919 87.2ZM449.519 -4.29153e-06C458.319 -4.29153e-06 465.652 0.999995 471.519 2.99999C477.385 4.99999 482.052 7.86666 485.519 11.6C489.119 15.3333 491.652 19.8667 493.119 25.2C494.585 30.5333 495.319 36.4667 495.319 43V105C491.052 105.933 485.119 107 477.519 108.2C469.919 109.533 460.719 110.2 449.919 110.2C443.119 110.2 436.919 109.6 431.319 108.4C425.852 107.2 421.119 105.267 417.119 102.6C413.119 99.8 410.052 96.2 407.919 91.8C405.785 87.4 404.719 82 404.719 75.6C404.719 69.4667 405.919 64.2667 408.319 60C410.852 55.7333 414.185 52.3333 418.319 49.8C422.452 47.2667 427.185 45.4667 432.519 44.4C437.852 43.2 443.385 42.6 449.119 42.6C452.985 42.6 456.385 42.8 459.319 43.2C462.385 43.4667 464.852 43.8667 466.719 44.4V41.6C466.719 36.5333 465.185 32.4667 462.119 29.4C459.052 26.3333 453.719 24.8 446.119 24.8C441.052 24.8 436.052 25.2 431.119 26C426.185 26.6667 421.919 27.6667 418.319 29L414.519 4.99999C416.252 4.46666 418.385 3.93333 420.919 3.4C423.585 2.73333 426.452 2.2 429.519 1.8C432.585 1.26666 435.785 0.866663 439.119 0.6C442.585 0.199997 446.052 -4.29153e-06 449.519 -4.29153e-06ZM613.127 2.8C607.127 23.0667 600.86 42.0667 594.327 59.8C587.793 77.5333 580.66 94.7333 572.927 111.4C570.127 117.4 567.327 122.467 564.527 126.6C561.727 130.867 558.66 134.333 555.327 137C551.993 139.8 548.193 141.8 543.927 143C539.793 144.333 534.927 145 529.327 145C524.66 145 520.327 144.533 516.327 143.6C512.46 142.8 509.26 141.867 506.727 140.8L511.927 117C514.993 118.067 517.727 118.8 520.127 119.2C522.527 119.6 525.06 119.8 527.727 119.8C533.06 119.8 537.127 118.333 539.927 115.4C542.86 112.6 545.327 108.667 547.327 103.6C540.527 90.2667 533.727 75.3333 526.927 58.8C520.127 42.1333 513.727 23.4667 507.727 2.8H539.327C540.66 8 542.193 13.6667 543.927 19.8C545.793 25.8 547.727 31.9333 549.727 38.2C551.727 44.3333 553.727 50.3333 555.727 56.2C557.86 62.0667 559.86 67.4 561.727 72.2C563.46 67.4 565.26 62.0667 567.127 56.2C568.993 50.3333 570.793 44.3333 572.527 38.2C574.393 31.9333 576.127 25.8 577.727 19.8C579.46 13.6667 580.993 8 582.327 2.8H613.127ZM667.348 87.2C670.282 87.2 673.082 87.1333 675.748 87C678.415 86.8667 680.548 86.6667 682.148 86.4V63.8C680.948 63.5333 679.148 63.2667 676.748 63C674.348 62.7333 672.148 62.6 670.148 62.6C667.348 62.6 664.682 62.8 662.148 63.2C659.748 63.4667 657.615 64.0667 655.748 65C653.882 65.9333 652.415 67.2 651.348 68.8C650.282 70.4 649.748 72.4 649.748 74.8C649.748 79.4667 651.282 82.7333 654.348 84.6C657.548 86.3333 661.882 87.2 667.348 87.2ZM664.948 -4.29153e-06C673.748 -4.29153e-06 681.082 0.999995 686.948 2.99999C692.815 4.99999 697.482 7.86666 700.948 11.6C704.548 15.3333 707.082 19.8667 708.548 25.2C710.015 30.5333 710.748 36.4667 710.748 43V105C706.482 105.933 700.548 107 692.948 108.2C685.348 109.533 676.148 110.2 665.348 110.2C658.548 110.2 652.348 109.6 646.748 108.4C641.282 107.2 636.548 105.267 632.548 102.6C628.548 99.8 625.482 96.2 623.348 91.8C621.215 87.4 620.148 82 620.148 75.6C620.148 69.4667 621.348 64.2667 623.748 60C626.282 55.7333 629.615 52.3333 633.748 49.8C637.882 47.2667 642.615 45.4667 647.948 44.4C653.282 43.2 658.815 42.6 664.548 42.6C668.415 42.6 671.815 42.8 674.748 43.2C677.815 43.4667 680.282 43.8667 682.148 44.4V41.6C682.148 36.5333 680.615 32.4667 677.548 29.4C674.482 26.3333 669.148 24.8 661.548 24.8C656.482 24.8 651.482 25.2 646.548 26C641.615 26.6667 637.348 27.6667 633.748 29L629.948 4.99999C631.682 4.46666 633.815 3.93333 636.348 3.4C639.015 2.73333 641.882 2.2 644.948 1.8C648.015 1.26666 651.215 0.866663 654.548 0.6C658.015 0.199997 661.482 -4.29153e-06 664.948 -4.29153e-06ZM459.751 193.1C459.751 200.967 460.984 208.467 463.451 215.6C465.917 222.733 469.151 229.133 473.151 234.8L462.751 241.5C457.084 234.9 452.717 227.5 449.651 219.3C446.584 211.1 445.051 202.367 445.051 193.1C445.051 183.833 446.584 175.1 449.651 166.9C452.717 158.7 457.084 151.3 462.751 144.7L473.151 151.4C469.151 157.067 465.917 163.467 463.451 170.6C460.984 177.733 459.751 185.233 459.751 193.1ZM514.395 196.3C514.395 186.7 510.862 181.9 503.795 181.9C502.262 181.9 500.729 182.1 499.195 182.5C497.729 182.9 496.529 183.4 495.595 184V211.1C496.329 211.233 497.262 211.367 498.395 211.5C499.529 211.567 500.762 211.6 502.095 211.6C506.162 211.6 509.229 210.2 511.295 207.4C513.362 204.6 514.395 200.9 514.395 196.3ZM529.595 196.7C529.595 200.9 528.962 204.7 527.695 208.1C526.495 211.5 524.729 214.4 522.395 216.8C520.062 219.2 517.195 221.067 513.795 222.4C510.395 223.667 506.529 224.3 502.195 224.3C500.395 224.3 498.495 224.2 496.495 224C494.562 223.867 492.629 223.667 490.695 223.4C488.829 223.133 487.029 222.833 485.295 222.5C483.562 222.1 482.029 221.7 480.695 221.3V147.8L495.595 145.4V171.6C497.262 170.867 498.995 170.3 500.795 169.9C502.595 169.5 504.529 169.3 506.595 169.3C510.329 169.3 513.629 169.967 516.495 171.3C519.362 172.567 521.762 174.4 523.695 176.8C525.629 179.2 527.095 182.1 528.095 185.5C529.095 188.833 529.595 192.567 529.595 196.7ZM538.547 197.1C538.547 192.433 539.247 188.367 540.647 184.9C542.114 181.367 544.014 178.433 546.347 176.1C548.68 173.767 551.347 172 554.347 170.8C557.414 169.6 560.547 169 563.747 169C571.214 169 577.114 171.3 581.447 175.9C585.78 180.433 587.947 187.133 587.947 196C587.947 196.867 587.914 197.833 587.847 198.9C587.78 199.9 587.714 200.8 587.647 201.6H553.847C554.18 204.667 555.614 207.1 558.147 208.9C560.68 210.7 564.08 211.6 568.347 211.6C571.08 211.6 573.747 211.367 576.347 210.9C579.014 210.367 581.18 209.733 582.847 209L584.847 221.1C584.047 221.5 582.98 221.9 581.647 222.3C580.314 222.7 578.814 223.033 577.147 223.3C575.547 223.633 573.814 223.9 571.947 224.1C570.08 224.3 568.214 224.4 566.347 224.4C561.614 224.4 557.48 223.7 553.947 222.3C550.48 220.9 547.58 219 545.247 216.6C542.98 214.133 541.28 211.233 540.147 207.9C539.08 204.567 538.547 200.967 538.547 197.1ZM573.547 191.4C573.48 190.133 573.247 188.9 572.847 187.7C572.514 186.5 571.947 185.433 571.147 184.5C570.414 183.567 569.447 182.8 568.247 182.2C567.114 181.6 565.68 181.3 563.947 181.3C562.28 181.3 560.847 181.6 559.647 182.2C558.447 182.733 557.447 183.467 556.647 184.4C555.847 185.333 555.214 186.433 554.747 187.7C554.347 188.9 554.047 190.133 553.847 191.4H573.547ZM598.945 157.3L613.845 154.9V170.4H631.745V182.8H613.845V201.3C613.845 204.433 614.379 206.933 615.445 208.8C616.579 210.667 618.812 211.6 622.145 211.6C623.745 211.6 625.379 211.467 627.045 211.2C628.779 210.867 630.345 210.433 631.745 209.9L633.845 221.5C632.045 222.233 630.045 222.867 627.845 223.4C625.645 223.933 622.945 224.2 619.745 224.2C615.679 224.2 612.312 223.667 609.645 222.6C606.979 221.467 604.845 219.933 603.245 218C601.645 216 600.512 213.6 599.845 210.8C599.245 208 598.945 204.9 598.945 201.5V157.3ZM662.026 212.6C663.492 212.6 664.892 212.567 666.226 212.5C667.559 212.433 668.626 212.333 669.426 212.2V200.9C668.826 200.767 667.926 200.633 666.726 200.5C665.526 200.367 664.426 200.3 663.426 200.3C662.026 200.3 660.692 200.4 659.426 200.6C658.226 200.733 657.159 201.033 656.226 201.5C655.292 201.967 654.559 202.6 654.026 203.4C653.492 204.2 653.226 205.2 653.226 206.4C653.226 208.733 653.992 210.367 655.526 211.3C657.126 212.167 659.292 212.6 662.026 212.6ZM660.826 169C665.226 169 668.892 169.5 671.826 170.5C674.759 171.5 677.092 172.933 678.826 174.8C680.626 176.667 681.892 178.933 682.626 181.6C683.359 184.267 683.726 187.233 683.726 190.5V221.5C681.592 221.967 678.626 222.5 674.826 223.1C671.026 223.767 666.426 224.1 661.026 224.1C657.626 224.1 654.526 223.8 651.726 223.2C648.992 222.6 646.626 221.633 644.626 220.3C642.626 218.9 641.092 217.1 640.026 214.9C638.959 212.7 638.426 210 638.426 206.8C638.426 203.733 639.026 201.133 640.226 199C641.492 196.867 643.159 195.167 645.226 193.9C647.292 192.633 649.659 191.733 652.326 191.2C654.992 190.6 657.759 190.3 660.626 190.3C662.559 190.3 664.259 190.4 665.726 190.6C667.259 190.733 668.492 190.933 669.426 191.2V189.8C669.426 187.267 668.659 185.233 667.126 183.7C665.592 182.167 662.926 181.4 659.126 181.4C656.592 181.4 654.092 181.6 651.626 182C649.159 182.333 647.026 182.833 645.226 183.5L643.326 171.5C644.192 171.233 645.259 170.967 646.526 170.7C647.859 170.367 649.292 170.1 650.826 169.9C652.359 169.633 653.959 169.433 655.626 169.3C657.359 169.1 659.092 169 660.826 169ZM701.951 193.1C701.951 185.233 700.717 177.733 698.251 170.6C695.784 163.467 692.551 157.067 688.551 151.4L698.951 144.7C704.617 151.3 708.984 158.7 712.051 166.9C715.117 175.1 716.651 183.833 716.651 193.1C716.651 202.367 715.117 211.1 712.051 219.3C708.984 227.5 704.617 234.9 698.951 241.5L688.551 234.8C692.551 229.133 695.784 222.733 698.251 215.6C700.717 208.467 701.951 200.967 701.951 193.1Z" fill="white"/>
</svg>
